<?xml version="1.0" encoding="UTF-8" standalone="no"?>
<!DOCTYPE svg PUBLIC "-//W3C//DTD SVG 1.1//EN"
 "http://www.w3.org/Graphics/SVG/1.1/DTD/svg11.dtd">
<!-- Generated by graphviz version 12.1.1 (20240910.0053)
 -->
<!-- Title: INFRA Pages: 1 -->
<svg width="2024pt" height="80pt"
 viewBox="0.00 0.00 2023.80 80.00" xmlns="http://www.w3.org/2000/svg" xmlns:xlink="http://www.w3.org/1999/xlink">
<g id="graph0" class="graph" transform="scale(1 1) rotate(0) translate(4 76)">
<title>INFRA</title>
<polygon fill="white" stroke="none" points="-4,4 -4,-76 2019.8,-76 2019.8,4 -4,4"/>
<!-- users -->
<g id="node1" class="node">
<title>users</title>
<path fill="#ffcfb3" stroke="black" stroke-width="2" d="M156.8,-65.45C156.8,-69.07 121.66,-72 78.4,-72 35.14,-72 0,-69.07 0,-65.45 0,-65.45 0,-6.55 0,-6.55 0,-2.93 35.14,0 78.4,0 121.66,0 156.8,-2.93 156.8,-6.55 156.8,-6.55 156.8,-65.45 156.8,-65.45"/>
<path fill="none" stroke="black" stroke-width="2" d="M156.8,-65.45C156.8,-61.84 121.66,-58.91 78.4,-58.91 35.14,-58.91 0,-61.84 0,-65.45"/>
<text text-anchor="middle" x="78.4" y="-40.2" font-family="Arial" font-size="14.00">users</text>
<text text-anchor="middle" x="78.4" y="-23.4" font-family="Arial" font-size="14.00">(AWS::RDS::DBTable)</text>
</g>
<!-- password_reset_tokens -->
<g id="node2" class="node">
<title>password_reset_tokens</title>
<path fill="#ffcfb3" stroke="black" stroke-width="2" d="M338.33,-65.45C338.33,-69.07 301.61,-72 256.4,-72 211.19,-72 174.47,-69.07 174.47,-65.45 174.47,-65.45 174.47,-6.55 174.47,-6.55 174.47,-2.93 211.19,0 256.4,0 301.61,0 338.33,-2.93 338.33,-6.55 338.33,-6.55 338.33,-65.45 338.33,-65.45"/>
<path fill="none" stroke="black" stroke-width="2" d="M338.33,-65.45C338.33,-61.84 301.61,-58.91 256.4,-58.91 211.19,-58.91 174.47,-61.84 174.47,-65.45"/>
<text text-anchor="middle" x="256.4" y="-40.2" font-family="Arial" font-size="14.00">password_reset_tokens</text>
<text text-anchor="middle" x="256.4" y="-23.4" font-family="Arial" font-size="14.00">(AWS::RDS::DBTable)</text>
</g>
<!-- sessions -->
<g id="node3" class="node">
<title>sessions</title>
<path fill="#ffcfb3" stroke="black" stroke-width="2" d="M512.8,-65.45C512.8,-69.07 477.66,-72 434.4,-72 391.14,-72 356,-69.07 356,-65.45 356,-65.45 356,-6.55 356,-6.55 356,-2.93 391.14,0 434.4,0 477.66,0 512.8,-2.93 512.8,-6.55 512.8,-6.55 512.8,-65.45 512.8,-65.45"/>
<path fill="none" stroke="black" stroke-width="2" d="M512.8,-65.45C512.8,-61.84 477.66,-58.91 434.4,-58.91 391.14,-58.91 356,-61.84 356,-65.45"/>
<text text-anchor="middle" x="434.4" y="-40.2" font-family="Arial" font-size="14.00">sessions</text>
<text text-anchor="middle" x="434.4" y="-23.4" font-family="Arial" font-size="14.00">(AWS::RDS::DBTable)</text>
</g>
<!-- local_storage -->
<g id="node4" class="node">
<title>local_storage</title>
<path fill="#fff5cd" stroke="black" stroke-width="2" d="M663.75,-65.45C663.75,-69.07 634.01,-72 597.4,-72 560.79,-72 531.05,-69.07 531.05,-65.45 531.05,-65.45 531.05,-6.55 531.05,-6.55 531.05,-2.93 560.79,0 597.4,0 634.01,0 663.75,-2.93 663.75,-6.55 663.75,-6.55 663.75,-65.45 663.75,-65.45"/>
<path fill="none" stroke="black" stroke-width="2" d="M663.75,-65.45C663.75,-61.84 634.01,-58.91 597.4,-58.91 560.79,-58.91 531.05,-61.84 531.05,-65.45"/>
<text text-anchor="middle" x="597.4" y="-40.2" font-family="Arial" font-size="14.00">local_storage</text>
<text text-anchor="middle" x="597.4" y="-23.4" font-family="Arial" font-size="14.00">(AWS::S3::Bucket)</text>
</g>
<!-- public_storage -->
<g id="node5" class="node">
<title>public_storage</title>
<path fill="#fff5cd" stroke="black" stroke-width="2" d="M814.75,-65.45C814.75,-69.07 785.01,-72 748.4,-72 711.79,-72 682.05,-69.07 682.05,-65.45 682.05,-65.45 682.05,-6.55 682.05,-6.55 682.05,-2.93 711.79,0 748.4,0 785.01,0 814.75,-2.93 814.75,-6.55 814.75,-6.55 814.75,-65.45 814.75,-65.45"/>
<path fill="none" stroke="black" stroke-width="2" d="M814.75,-65.45C814.75,-61.84 785.01,-58.91 748.4,-58.91 711.79,-58.91 682.05,-61.84 682.05,-65.45"/>
<text text-anchor="middle" x="748.4" y="-40.2" font-family="Arial" font-size="14.00">public_storage</text>
<text text-anchor="middle" x="748.4" y="-23.4" font-family="Arial" font-size="14.00">(AWS::S3::Bucket)</text>
</g>
<!-- s3_storage -->
<g id="node6" class="node">
<title>s3_storage</title>
<path fill="#fff5cd" stroke="black" stroke-width="2" d="M965.75,-65.45C965.75,-69.07 936.01,-72 899.4,-72 862.79,-72 833.05,-69.07 833.05,-65.45 833.05,-65.45 833.05,-6.55 833.05,-6.55 833.05,-2.93 862.79,0 899.4,0 936.01,0 965.75,-2.93 965.75,-6.55 965.75,-6.55 965.75,-65.45 965.75,-65.45"/>
<path fill="none" stroke="black" stroke-width="2" d="M965.75,-65.45C965.75,-61.84 936.01,-58.91 899.4,-58.91 862.79,-58.91 833.05,-61.84 833.05,-65.45"/>
<text text-anchor="middle" x="899.4" y="-40.2" font-family="Arial" font-size="14.00">s3_storage</text>
<text text-anchor="middle" x="899.4" y="-23.4" font-family="Arial" font-size="14.00">(AWS::S3::Bucket)</text>
</g>
<!-- cache -->
<g id="node7" class="node">
<title>cache</title>
<path fill="#ffcfb3" stroke="black" stroke-width="2" d="M1140.8,-65.45C1140.8,-69.07 1105.66,-72 1062.4,-72 1019.14,-72 984,-69.07 984,-65.45 984,-65.45 984,-6.55 984,-6.55 984,-2.93 1019.14,0 1062.4,0 1105.66,0 1140.8,-2.93 1140.8,-6.55 1140.8,-6.55 1140.8,-65.45 1140.8,-65.45"/>
<path fill="none" stroke="black" stroke-width="2" d="M1140.8,-65.45C1140.8,-61.84 1105.66,-58.91 1062.4,-58.91 1019.14,-58.91 984,-61.84 984,-65.45"/>
<text text-anchor="middle" x="1062.4" y="-40.2" font-family="Arial" font-size="14.00">cache</text>
<text text-anchor="middle" x="1062.4" y="-23.4" font-family="Arial" font-size="14.00">(AWS::RDS::DBTable)</text>
</g>
<!-- cache_locks -->
<g id="node8" class="node">
<title>cache_locks</title>
<path fill="#ffcfb3" stroke="black" stroke-width="2" d="M1315.8,-65.45C1315.8,-69.07 1280.66,-72 1237.4,-72 1194.14,-72 1159,-69.07 1159,-65.45 1159,-65.45 1159,-6.55 1159,-6.55 1159,-2.93 1194.14,0 1237.4,0 1280.66,0 1315.8,-2.93 1315.8,-6.55 1315.8,-6.55 1315.8,-65.45 1315.8,-65.45"/>
<path fill="none" stroke="black" stroke-width="2" d="M1315.8,-65.45C1315.8,-61.84 1280.66,-58.91 1237.4,-58.91 1194.14,-58.91 1159,-61.84 1159,-65.45"/>
<text text-anchor="middle" x="1237.4" y="-40.2" font-family="Arial" font-size="14.00">cache_locks</text>
<text text-anchor="middle" x="1237.4" y="-23.4" font-family="Arial" font-size="14.00">(AWS::RDS::DBTable)</text>
</g>
<!-- pets -->
<g id="node9" class="node">
<title>pets</title>
<path fill="#ffcfb3" stroke="black" stroke-width="2" d="M1490.8,-65.45C1490.8,-69.07 1455.66,-72 1412.4,-72 1369.14,-72 1334,-69.07 1334,-65.45 1334,-65.45 1334,-6.55 1334,-6.55 1334,-2.93 1369.14,0 1412.4,0 1455.66,0 1490.8,-2.93 1490.8,-6.55 1490.8,-6.55 1490.8,-65.45 1490.8,-65.45"/>
<path fill="none" stroke="black" stroke-width="2" d="M1490.8,-65.45C1490.8,-61.84 1455.66,-58.91 1412.4,-58.91 1369.14,-58.91 1334,-61.84 1334,-65.45"/>
<text text-anchor="middle" x="1412.4" y="-40.2" font-family="Arial" font-size="14.00">pets</text>
<text text-anchor="middle" x="1412.4" y="-23.4" font-family="Arial" font-size="14.00">(AWS::RDS::DBTable)</text>
</g>
<!-- jobs -->
<g id="node10" class="node">
<title>jobs</title>
<path fill="#ffcfb3" stroke="black" stroke-width="2" d="M1665.8,-65.45C1665.8,-69.07 1630.66,-72 1587.4,-72 1544.14,-72 1509,-69.07 1509,-65.45 1509,-65.45 1509,-6.55 1509,-6.55 1509,-2.93 1544.14,0 1587.4,0 1630.66,0 1665.8,-2.93 1665.8,-6.55 1665.8,-6.55 1665.8,-65.45 1665.8,-65.45"/>
<path fill="none" stroke="black" stroke-width="2" d="M1665.8,-65.45C1665.8,-61.84 1630.66,-58.91 1587.4,-58.91 1544.14,-58.91 1509,-61.84 1509,-65.45"/>
<text text-anchor="middle" x="1587.4" y="-40.2" font-family="Arial" font-size="14.00">jobs</text>
<text text-anchor="middle" x="1587.4" y="-23.4" font-family="Arial" font-size="14.00">(AWS::RDS::DBTable)</text>
</g>
<!-- job_batches -->
<g id="node11" class="node">
<title>job_batches</title>
<path fill="#ffcfb3" stroke="black" stroke-width="2" d="M1840.8,-65.45C1840.8,-69.07 1805.66,-72 1762.4,-72 1719.14,-72 1684,-69.07 1684,-65.45 1684,-65.45 1684,-6.55 1684,-6.55 1684,-2.93 1719.14,0 1762.4,0 1805.66,0 1840.8,-2.93 1840.8,-6.55 1840.8,-6.55 1840.8,-65.45 1840.8,-65.45"/>
<path fill="none" stroke="black" stroke-width="2" d="M1840.8,-65.45C1840.8,-61.84 1805.66,-58.91 1762.4,-58.91 1719.14,-58.91 1684,-61.84 1684,-65.45"/>
<text text-anchor="middle" x="1762.4" y="-40.2" font-family="Arial" font-size="14.00">job_batches</text>
<text text-anchor="middle" x="1762.4" y="-23.4" font-family="Arial" font-size="14.00">(AWS::RDS::DBTable)</text>
</g>
<!-- failed_jobs -->
<g id="node12" class="node">
<title>failed_jobs</title>
<path fill="#ffcfb3" stroke="black" stroke-width="2" d="M2015.8,-65.45C2015.8,-69.07 1980.66,-72 1937.4,-72 1894.14,-72 1859,-69.07 1859,-65.45 1859,-65.45 1859,-6.55 1859,-6.55 1859,-2.93 1894.14,0 1937.4,0 1980.66,0 2015.8,-2.93 2015.8,-6.55 2015.8,-6.55 2015.8,-65.45 2015.8,-65.45"/>
<path fill="none" stroke="black" stroke-width="2" d="M2015.8,-65.45C2015.8,-61.84 1980.66,-58.91 1937.4,-58.91 1894.14,-58.91 1859,-61.84 1859,-65.45"/>
<text text-anchor="middle" x="1937.4" y="-40.2" font-family="Arial" font-size="14.00">failed_jobs</text>
<text text-anchor="middle" x="1937.4" y="-23.4" font-family="Arial" font-size="14.00">(AWS::RDS::DBTable)</text>
</g>
</g>
</svg>
